<svg width="512" height="512" viewBox="0 0 512 512" fill="none" xmlns="http://www.w3.org/2000/svg">
<path fill-rule="evenodd" clip-rule="evenodd" d="M51 439.189C51 459.145 68.46 481.369 94.6499 481.369C127.387 481.369 156.487 466.855 172.856 443.271C175.314 439.73 178.067 435.6 180.941 431.157C167.936 426.415 156.781 420.748 147.475 414.156C141.379 409.889 138.33 405.774 138.33 401.811C138.33 399.068 139.397 396.172 141.531 393.124L168.05 351.516C170.794 347.554 173.537 345.572 176.28 345.572C178.719 345.572 181.615 346.639 184.968 348.773C195.941 355.479 208.439 360.813 222.46 364.776C236.787 368.434 250.656 370.263 264.068 370.263C275.346 370.263 283.424 368.738 288.301 365.69C293.483 362.642 296.074 357.917 296.074 351.516C296.074 344.505 292.721 338.866 286.015 334.599C279.309 330.331 267.726 324.997 251.266 318.596C220.479 306.708 196.246 293.296 178.566 278.36C160.887 263.119 152.047 243.001 152.047 218.006C152.047 186.305 163.021 162.529 184.968 146.678C207.219 130.523 237.091 122.445 274.584 122.445C300.798 122.445 323.05 124.732 341.339 129.304C359.933 133.876 376.089 141.039 389.805 150.794C395.902 155.061 398.95 159.176 398.95 163.139C398.95 165.882 397.883 168.778 395.749 171.826L369.23 213.434C366.487 217.701 363.743 219.835 361 219.835C359.171 219.835 356.275 218.616 352.313 216.177C344.997 211.3 336.31 207.337 326.251 204.289C316.192 200.936 305.371 199.26 293.788 199.26C283.119 199.26 275.041 200.784 269.555 203.832C264.068 206.88 261.325 211.757 261.325 218.463C261.325 223.95 263.153 228.522 266.811 232.18C270.774 235.838 275.651 239.038 281.443 241.782C287.234 244.22 297.293 248.335 311.62 254.127C334.481 263.271 352.465 272.111 365.572 280.646C378.68 288.876 388.586 298.935 395.292 310.823C400.023 318.994 403.085 328.758 404.478 340.115C433.993 313.459 460.218 270.961 460.218 205.614C460.218 85.1531 351.093 36.8961 321.993 33.2677C292.893 29.6394 87.375 31.4535 87.375 31.4535C74.6437 31.4535 65.55 36.8961 58.275 45.9669C51 55.0378 51 67.737 51 74.9937V439.189Z" fill="url(#paint0_linear_14_102)"/>
<defs>
<linearGradient id="paint0_linear_14_102" x1="332.906" y1="90.8678" x2="51.7144" y2="374.587" gradientUnits="userSpaceOnUse">
<stop stop-color="#119C94"/>
<stop offset="1" stop-color="#44D6CD"/>
</linearGradient>
</defs>
</svg>
