<svg width="512" height="512" viewBox="0 0 512 512" fill="none" xmlns="http://www.w3.org/2000/svg">
<path fill-rule="evenodd" clip-rule="evenodd" d="M140 31.1208C108.856 31.2551 86.375 31.4536 86.375 31.4536C73.6437 31.4536 64.55 36.8961 57.275 45.967C50 55.0379 50 67.7371 50 74.9938V439.189C50 459.145 67.46 481.369 93.6499 481.369C114.408 481.369 133.704 475.534 149.219 465.251C149.24 465.13 149.261 465.009 149.283 464.887L190.057 240.741L126.709 229.218L125.991 231.289C125.629 232.332 124.489 232.885 123.446 232.523C122.402 232.161 121.85 231.021 122.212 229.978L122.727 228.493C117.063 227.43 113.098 225.452 110.832 222.557C108.895 219.375 108.453 214.892 109.505 209.11L119.553 153.872C120.605 148.09 122.569 144.203 125.447 142.211C128.684 139.97 133.194 139.376 138.977 140.428L152.533 142.894C152.536 142.684 152.571 142.47 152.644 142.261L155.18 134.951C155.542 133.908 156.682 133.355 157.725 133.717C158.769 134.079 159.321 135.219 158.959 136.263L156.423 143.572L156.413 143.599L380.013 184.273C385.796 185.325 389.655 187.442 391.592 190.624C393.888 193.557 394.51 197.915 393.458 203.697L383.41 258.935C382.358 264.717 380.214 268.729 376.976 270.97C374.099 272.961 369.769 273.431 363.986 272.38L296.88 260.173L274.747 381.844C297.721 382.35 321.373 381.681 335.543 377.961C370.1 368.89 459.218 326.076 459.218 205.614C459.218 85.1531 350.093 36.8961 320.993 33.2678C309.731 31.8635 272.04 31.2744 230.067 31.08V66L185.033 92L140 66V31.1208ZM369.847 105.5L343 90L317.247 104.869L311.967 102.463C310.962 102.005 309.775 102.448 309.317 103.453C308.859 104.458 309.303 105.644 310.308 106.102L316.153 108.766V136.5L343 152L369.847 136.5V105.5ZM100 274L117.32 284V304L100 314L82.6794 304V284L100 274ZM234.787 67.2919C233.781 66.8339 232.595 67.2774 232.137 68.2825C231.679 69.2876 232.123 70.4738 233.128 70.9318L243.419 75.6212C244.424 76.0792 245.61 75.6357 246.068 74.6306C246.526 73.6255 246.082 72.4394 245.077 71.9813L234.787 67.2919ZM260.513 79.0155C259.508 78.5574 258.322 79.0009 257.864 80.0061C257.406 81.0112 257.849 82.1973 258.855 82.6553L269.145 87.3448C270.15 87.8028 271.337 87.3593 271.795 86.3542C272.253 85.349 271.809 84.1629 270.804 83.7049L260.513 79.0155ZM286.24 90.739C285.235 90.281 284.049 90.7245 283.591 91.7296C283.133 92.7347 283.576 93.9209 284.581 94.3789L294.872 99.0683C295.877 99.5264 297.063 99.0828 297.521 98.0777C297.979 97.0726 297.536 95.8865 296.531 95.4284L286.24 90.739ZM172.941 89.8591C173.985 90.2211 174.537 91.3606 174.175 92.4042L171.639 99.7139C171.277 100.757 170.138 101.31 169.094 100.948C168.051 100.586 167.498 99.4463 167.86 98.4028L170.396 91.0931C170.758 90.0495 171.898 89.497 172.941 89.8591ZM165.333 111.788C166.377 112.15 166.929 113.29 166.567 114.333L164.031 121.643C163.669 122.687 162.53 123.239 161.486 122.877C160.443 122.515 159.89 121.376 160.252 120.332L162.788 113.022C163.15 111.979 164.29 111.426 165.333 111.788ZM119.685 243.363C120.728 243.725 121.281 244.865 120.919 245.908L118.383 253.218C118.021 254.262 116.881 254.814 115.838 254.452C114.794 254.09 114.242 252.951 114.604 251.907L117.14 244.597C117.502 243.554 118.641 243.001 119.685 243.363ZM112.077 265.293C113.12 265.655 113.673 266.794 113.311 267.838L110.775 275.147C110.413 276.191 109.273 276.743 108.23 276.381C107.186 276.019 106.634 274.88 106.996 273.836L109.532 266.526C109.894 265.483 111.033 264.93 112.077 265.293Z" fill="white"/>
</svg>
