<svg width="1896" height="512" viewBox="0 0 1896 512" fill="none" xmlns="http://www.w3.org/2000/svg">
<path d="M586.344 166.35C594.24 166.35 600.256 164.564 604.392 160.992C608.716 157.232 610.878 151.592 610.878 144.072C610.878 136.928 608.622 131.476 604.11 127.716C599.786 123.768 593.394 121.794 584.934 121.794C581.926 121.794 579.388 121.888 577.32 122.076C575.44 122.076 573.466 122.264 571.398 122.64V166.35H586.344ZM571.68 256.872C569.612 257.436 566.322 258 561.81 258.564C557.486 259.128 553.162 259.41 548.838 259.41C544.514 259.41 540.66 259.034 537.276 258.282C534.08 257.718 531.354 256.59 529.098 254.898C526.842 253.206 525.15 250.856 524.022 247.848C522.894 244.84 522.33 240.892 522.33 236.004V103.182C522.33 99.234 523.364 96.226 525.432 94.158C527.688 91.902 530.696 90.116 534.456 88.8C540.848 86.544 548.086 84.946 556.17 84.006C564.442 82.878 572.714 82.314 580.986 82.314C606.93 82.314 626.764 87.86 640.488 98.952C654.212 110.044 661.074 125.084 661.074 144.072C661.074 153.284 659.57 161.65 656.562 169.17C653.742 176.502 649.418 182.894 643.59 188.346C637.95 193.61 630.712 197.746 621.876 200.754C613.228 203.574 603.17 204.984 591.702 204.984H571.68V256.872Z" fill="#333333"/>
<path d="M702.748 92.184C705.944 90.304 710.738 88.518 717.13 86.826C723.71 85.134 730.29 84.288 736.87 84.288C746.27 84.288 754.542 85.698 761.686 88.518C769.018 91.15 773.718 95.38 775.786 101.208C779.17 110.984 782.836 122.358 786.784 135.33C790.732 148.302 794.68 161.744 798.628 175.656C802.576 189.38 806.43 203.01 810.19 216.546C813.95 229.894 817.24 241.738 820.06 252.078C817.804 254.71 814.42 256.778 809.908 258.282C805.396 259.974 800.038 260.82 793.834 260.82C789.322 260.82 785.468 260.444 782.272 259.692C779.264 258.94 776.726 257.812 774.658 256.308C772.778 254.804 771.18 252.83 769.864 250.386C768.736 247.942 767.702 245.122 766.762 241.926L761.686 222.468H710.644C709.14 228.108 707.636 233.936 706.132 239.952C704.628 245.968 703.124 251.796 701.62 257.436C698.988 258.376 696.168 259.128 693.16 259.692C690.34 260.444 686.862 260.82 682.726 260.82C673.138 260.82 665.994 259.222 661.294 256.026C656.782 252.642 654.526 248.036 654.526 242.208C654.526 239.576 654.902 236.944 655.654 234.312C656.406 231.68 657.252 228.578 658.192 225.006C659.508 219.93 661.294 213.632 663.55 206.112C665.994 198.592 668.626 190.508 671.446 181.86C674.266 173.024 677.274 164 680.47 154.788C683.666 145.576 686.674 136.928 689.494 128.844C692.314 120.572 694.852 113.24 697.108 106.848C699.552 100.456 701.432 95.568 702.748 92.184ZM736.588 128.562C733.956 136.458 730.948 145.294 727.564 155.07C724.368 164.658 721.454 174.434 718.822 184.398H753.79C751.158 174.246 748.432 164.376 745.612 154.788C742.98 145.012 740.536 136.27 738.28 128.562H736.588Z" fill="#333333"/>
<path d="M881.497 190.038C873.225 187.218 865.705 184.398 858.937 181.578C852.169 178.57 846.341 174.998 841.453 170.862C836.565 166.726 832.711 161.838 829.891 156.198C827.259 150.37 825.943 143.32 825.943 135.048C825.943 119.068 832.053 106.284 844.273 96.696C856.681 87.108 873.977 82.314 896.161 82.314C904.245 82.314 911.765 82.878 918.721 84.006C925.677 85.134 931.599 86.92 936.487 89.364C941.563 91.62 945.511 94.628 948.331 98.388C951.151 101.96 952.561 106.19 952.561 111.078C952.561 115.966 951.433 120.196 949.177 123.768C946.921 127.152 944.195 130.066 940.999 132.51C936.863 129.878 931.317 127.622 924.361 125.742C917.405 123.674 909.791 122.64 901.519 122.64C893.059 122.64 886.855 123.862 882.907 126.306C878.959 128.562 876.985 131.476 876.985 135.048C876.985 137.868 878.207 140.218 880.651 142.098C883.095 143.79 886.761 145.388 891.649 146.892L906.595 151.686C924.267 157.326 937.803 164.564 947.203 173.4C956.791 182.048 961.585 193.892 961.585 208.932C961.585 224.912 955.287 237.884 942.691 247.848C930.095 257.624 911.577 262.512 887.137 262.512C878.489 262.512 870.405 261.76 862.885 260.256C855.553 258.94 849.067 256.966 843.427 254.334C837.975 251.514 833.651 248.13 830.455 244.182C827.447 240.046 825.943 235.346 825.943 230.082C825.943 224.63 827.541 220.024 830.737 216.264C833.933 212.316 837.411 209.308 841.171 207.24C846.435 211.376 852.827 214.948 860.347 217.956C868.055 220.964 876.421 222.468 885.445 222.468C894.657 222.468 901.143 221.058 904.903 218.238C908.663 215.418 910.543 212.128 910.543 208.368C910.543 204.608 909.039 201.788 906.031 199.908C903.023 197.84 898.793 195.866 893.341 193.986L881.497 190.038Z" fill="#333333"/>
<path d="M1025.54 190.038C1017.26 187.218 1009.74 184.398 1002.98 181.578C996.209 178.57 990.381 174.998 985.493 170.862C980.605 166.726 976.751 161.838 973.931 156.198C971.299 150.37 969.983 143.32 969.983 135.048C969.983 119.068 976.093 106.284 988.313 96.696C1000.72 87.108 1018.02 82.314 1040.2 82.314C1048.28 82.314 1055.8 82.878 1062.76 84.006C1069.72 85.134 1075.64 86.92 1080.53 89.364C1085.6 91.62 1089.55 94.628 1092.37 98.388C1095.19 101.96 1096.6 106.19 1096.6 111.078C1096.6 115.966 1095.47 120.196 1093.22 123.768C1090.96 127.152 1088.24 130.066 1085.04 132.51C1080.9 129.878 1075.36 127.622 1068.4 125.742C1061.45 123.674 1053.83 122.64 1045.56 122.64C1037.1 122.64 1030.89 123.862 1026.95 126.306C1023 128.562 1021.02 131.476 1021.02 135.048C1021.02 137.868 1022.25 140.218 1024.69 142.098C1027.13 143.79 1030.8 145.388 1035.69 146.892L1050.64 151.686C1068.31 157.326 1081.84 164.564 1091.24 173.4C1100.83 182.048 1105.62 193.892 1105.62 208.932C1105.62 224.912 1099.33 237.884 1086.73 247.848C1074.14 257.624 1055.62 262.512 1031.18 262.512C1022.53 262.512 1014.44 261.76 1006.92 260.256C999.593 258.94 993.107 256.966 987.467 254.334C982.015 251.514 977.691 248.13 974.495 244.182C971.487 240.046 969.983 235.346 969.983 230.082C969.983 224.63 971.581 220.024 974.777 216.264C977.973 212.316 981.451 209.308 985.211 207.24C990.475 211.376 996.867 214.948 1004.39 217.956C1012.09 220.964 1020.46 222.468 1029.48 222.468C1038.7 222.468 1045.18 221.058 1048.94 218.238C1052.7 215.418 1054.58 212.128 1054.58 208.368C1054.58 204.608 1053.08 201.788 1050.07 199.908C1047.06 197.84 1042.83 195.866 1037.38 193.986L1025.54 190.038Z" fill="#333333"/>
<path d="M1276.99 230.082C1276.99 235.91 1275.96 240.234 1273.89 243.054C1271.82 245.874 1268.53 248.6 1264.02 251.232C1261.39 252.736 1258.1 254.24 1254.15 255.744C1250.2 257.06 1245.88 258.188 1241.18 259.128C1236.48 260.256 1231.5 261.102 1226.23 261.666C1221.16 262.23 1216.08 262.512 1211 262.512C1197.47 262.512 1184.78 260.726 1172.93 257.154C1161.09 253.394 1150.75 247.848 1141.91 240.516C1133.27 232.996 1126.4 223.69 1121.33 212.598C1116.25 201.506 1113.71 188.628 1113.71 173.964C1113.71 158.548 1116.44 145.106 1121.89 133.638C1127.53 122.17 1134.86 112.676 1143.89 105.156C1153.1 97.448 1163.53 91.714 1175.19 87.954C1187.03 84.194 1199.16 82.314 1211.57 82.314C1229.43 82.314 1243.53 85.228 1253.87 91.056C1264.4 96.696 1269.66 104.122 1269.66 113.334C1269.66 118.222 1268.44 122.452 1265.99 126.024C1263.55 129.596 1260.73 132.416 1257.53 134.484C1252.83 131.664 1246.91 128.938 1239.77 126.306C1232.81 123.486 1224.92 122.076 1216.08 122.076C1200.29 122.076 1187.69 126.588 1178.29 135.612C1169.08 144.636 1164.47 157.138 1164.47 173.118C1164.47 181.766 1165.7 189.286 1168.14 195.678C1170.77 201.882 1174.25 207.052 1178.57 211.188C1182.9 215.136 1187.88 218.144 1193.52 220.212C1199.16 222.092 1205.18 223.032 1211.57 223.032C1215.7 223.032 1219.37 222.656 1222.57 221.904C1225.76 221.152 1228.21 220.306 1229.9 219.366V192.858H1199.72C1198.6 190.79 1197.47 188.064 1196.34 184.68C1195.4 181.296 1194.93 177.724 1194.93 173.964C1194.93 167.196 1196.43 162.308 1199.44 159.3C1202.64 156.292 1206.68 154.788 1211.57 154.788H1259.23C1264.87 154.788 1269.19 156.386 1272.2 159.582C1275.39 162.59 1276.99 166.914 1276.99 172.554V230.082Z" fill="#333333"/>
<path d="M1298.16 113.334C1298.16 105.25 1300.51 98.858 1305.21 94.158C1309.91 89.458 1316.3 87.108 1324.39 87.108H1417.45C1418.76 89.176 1419.89 91.902 1420.83 95.286C1421.96 98.67 1422.52 102.242 1422.52 106.002C1422.52 113.146 1420.92 118.222 1417.73 121.23C1414.72 124.238 1410.68 125.742 1405.6 125.742H1346.1V151.968H1409.55C1410.87 154.036 1411.99 156.762 1412.93 160.146C1414.06 163.342 1414.63 166.82 1414.63 170.58C1414.63 177.724 1413.12 182.8 1410.11 185.808C1407.11 188.816 1403.06 190.32 1397.99 190.32H1346.1V219.93H1418.57C1419.89 221.998 1421.02 224.724 1421.96 228.108C1423.09 231.492 1423.65 235.064 1423.65 238.824C1423.65 245.968 1422.05 251.138 1418.86 254.334C1415.85 257.342 1411.81 258.846 1406.73 258.846H1324.39C1316.3 258.846 1309.91 256.496 1305.21 251.796C1300.51 247.096 1298.16 240.704 1298.16 232.62V113.334Z" fill="#333333"/>
<path d="M1596.19 252.078C1593.56 254.71 1589.71 256.684 1584.63 258C1579.74 259.504 1573.82 260.256 1566.86 260.256C1559.91 260.256 1553.33 259.222 1547.12 257.154C1540.92 255.086 1535.84 250.104 1531.9 242.208L1503.98 185.244C1501.16 179.416 1498.62 173.964 1496.36 168.888C1494.11 163.624 1491.66 157.608 1489.03 150.84L1487.34 151.122C1488.09 161.274 1488.47 171.614 1488.47 182.142C1488.66 192.67 1488.75 203.01 1488.75 213.162V256.872C1486.68 257.436 1483.49 258 1479.16 258.564C1475.03 259.128 1470.89 259.41 1466.75 259.41C1462.62 259.41 1458.95 259.128 1455.76 258.564C1452.56 258 1449.93 256.872 1447.86 255.18C1445.79 253.488 1444.19 251.232 1443.07 248.412C1441.94 245.404 1441.37 241.55 1441.37 236.85V95.85C1444.01 92.09 1448.05 89.27 1453.5 87.39C1458.95 85.51 1464.78 84.57 1470.98 84.57C1477.94 84.57 1484.52 85.698 1490.72 87.954C1497.12 90.022 1502.19 94.91 1505.95 102.618L1534.15 159.582C1536.97 165.41 1539.51 170.956 1541.77 176.22C1544.02 181.296 1546.47 187.218 1549.1 193.986L1550.51 193.704C1549.76 183.552 1549.29 173.4 1549.1 163.248C1548.91 153.096 1548.82 142.944 1548.82 132.792V87.108C1550.88 86.544 1553.99 85.98 1558.12 85.416C1562.45 84.852 1566.68 84.57 1570.81 84.57C1579.08 84.57 1585.38 86.074 1589.71 89.082C1594.03 91.902 1596.19 97.918 1596.19 107.13V252.078Z" fill="#333333"/>
<path d="M1670.84 256.872C1668.77 257.436 1665.48 258 1660.97 258.564C1656.65 259.128 1652.32 259.41 1648 259.41C1643.68 259.41 1639.82 259.034 1636.44 258.282C1633.24 257.718 1630.52 256.59 1628.26 254.898C1626 253.206 1624.31 250.856 1623.18 247.848C1622.06 244.84 1621.49 240.892 1621.49 236.004V87.108C1623.56 86.732 1626.85 86.262 1631.36 85.698C1635.87 84.946 1640.2 84.57 1644.33 84.57C1648.66 84.57 1652.42 84.946 1655.61 85.698C1659 86.262 1661.82 87.39 1664.07 89.082C1666.33 90.774 1668.02 93.124 1669.15 96.132C1670.28 99.14 1670.84 103.088 1670.84 107.976V256.872Z" fill="#333333"/>
<path d="M1684.29 107.976C1685.23 105.344 1686.54 102.712 1688.24 100.08C1689.93 97.448 1692 95.098 1694.44 93.03C1697.07 90.774 1700.08 88.988 1703.47 87.672C1706.85 86.168 1710.61 85.416 1714.75 85.416C1720.2 85.416 1724.99 86.826 1729.13 89.646C1733.26 92.278 1737.49 96.884 1741.82 103.464L1763.81 137.022L1796.24 89.082C1797.75 88.33 1799.81 87.672 1802.45 87.108C1805.27 86.356 1807.99 85.98 1810.62 85.98C1819.27 85.98 1826.04 88.048 1830.93 92.184C1835.82 96.32 1838.26 101.396 1838.26 107.412C1838.26 112.676 1836.85 117.376 1834.03 121.512C1831.4 125.648 1827.73 130.63 1823.03 136.458L1793.99 171.99L1839.95 237.696C1838.45 244.652 1835.16 250.198 1830.08 254.334C1825.19 258.282 1818.52 260.256 1810.06 260.256C1804.61 260.256 1799.91 258.94 1795.96 256.308C1792.01 253.488 1787.97 248.788 1783.84 242.208L1760.99 206.112L1725.46 259.692C1723.96 259.88 1722.55 259.974 1721.23 259.974C1719.92 260.162 1718.6 260.256 1717.28 260.256C1706.57 260.256 1698.67 258.094 1693.6 253.77C1688.52 249.446 1685.98 244.088 1685.98 237.696C1685.98 232.244 1687.11 227.544 1689.37 223.596C1691.81 219.46 1695.19 214.666 1699.52 209.214L1729.13 171.144L1684.29 107.976Z" fill="#333333"/>
<path fill-rule="evenodd" clip-rule="evenodd" d="M488.066 389.5C516.078 354.5 520 312 520 312H1846V434H520H427C427 434 460.054 424.5 488.066 389.5ZM833.247 418.44C826.767 418.44 820.727 417.4 815.127 415.32C809.607 413.16 804.807 410.12 800.727 406.2C796.647 402.28 793.447 397.68 791.127 392.4C788.887 387.12 787.767 381.32 787.767 375C787.767 368.68 788.887 362.88 791.127 357.6C793.447 352.32 796.647 347.72 800.727 343.8C804.887 339.88 809.727 336.88 815.247 334.8C820.767 332.64 826.807 331.56 833.367 331.56C840.648 331.56 847.208 332.84 853.047 335.4C858.967 337.88 863.927 341.56 867.927 346.44L855.448 357.96C852.568 354.68 849.367 352.24 845.847 350.64C842.327 348.96 838.487 348.12 834.328 348.12C830.407 348.12 826.807 348.76 823.527 350.04C820.247 351.32 817.407 353.16 815.007 355.56C812.607 357.96 810.727 360.8 809.367 364.08C808.087 367.36 807.448 371 807.448 375C807.448 379 808.087 382.64 809.367 385.92C810.727 389.2 812.607 392.04 815.007 394.44C817.407 396.84 820.247 398.68 823.527 399.96C826.807 401.24 830.407 401.88 834.328 401.88C838.487 401.88 842.327 401.08 845.847 399.48C849.367 397.8 852.568 395.28 855.448 391.92L867.927 403.44C863.927 408.32 858.967 412.04 853.047 414.6C847.208 417.16 840.607 418.44 833.247 418.44ZM569.36 348.84V417H588.8V348.84H615.68V333H542.48V348.84H569.36ZM688.66 381.96V401.4H734.38V417H669.34V333H732.82V348.6H688.66V366.84H727.66V381.96H688.66ZM1001.3 333H981.855V366.12H943.695V333H924.255V417H943.695V382.56H981.855V417H1001.3V333ZM1064.37 333H1080.45L1122.21 383.961V333H1141.41V417H1125.45L1083.57 366.016V417H1064.37V333ZM1226.8 415.2C1232.48 417.36 1238.64 418.44 1245.28 418.44C1251.84 418.44 1257.88 417.36 1263.4 415.2C1269 413.04 1273.84 410.04 1277.92 406.2C1282.08 402.28 1285.32 397.68 1287.64 392.4C1289.96 387.04 1291.12 381.24 1291.12 375C1291.12 368.68 1289.96 362.92 1287.64 357.72C1285.32 352.44 1282.08 347.84 1277.92 343.92C1273.84 340 1269 336.96 1263.4 334.8C1257.88 332.64 1251.8 331.56 1245.16 331.56C1238.6 331.56 1232.52 332.64 1226.92 334.8C1221.32 336.96 1216.44 340 1212.28 343.92C1208.12 347.84 1204.88 352.44 1202.56 357.72C1200.32 363 1199.2 368.76 1199.2 375C1199.2 381.24 1200.32 387 1202.56 392.28C1204.88 397.56 1208.08 402.16 1212.16 406.08C1216.32 410 1221.2 413.04 1226.8 415.2ZM1255.48 399.96C1252.36 401.24 1248.92 401.88 1245.16 401.88C1241.4 401.88 1237.92 401.24 1234.72 399.96C1231.52 398.68 1228.72 396.84 1226.32 394.44C1224 392.04 1222.16 389.2 1220.8 385.92C1219.52 382.56 1218.88 378.92 1218.88 375C1218.88 371 1219.52 367.36 1220.8 364.08C1222.16 360.8 1224.04 357.96 1226.44 355.56C1228.84 353.16 1231.6 351.32 1234.72 350.04C1237.92 348.76 1241.4 348.12 1245.16 348.12C1248.92 348.12 1252.4 348.76 1255.6 350.04C1258.8 351.32 1261.56 353.16 1263.88 355.56C1266.28 357.96 1268.12 360.8 1269.4 364.08C1270.76 367.36 1271.44 371 1271.44 375C1271.44 379 1270.76 382.64 1269.4 385.92C1268.12 389.2 1266.28 392.04 1263.88 394.44C1261.48 396.84 1258.68 398.68 1255.48 399.96ZM1348.93 333H1368.37V401.16H1410.49V417H1348.93V333ZM1485.47 415.2C1491.15 417.36 1497.31 418.44 1503.95 418.44C1510.51 418.44 1516.55 417.36 1522.07 415.2C1527.67 413.04 1532.51 410.04 1536.59 406.2C1540.75 402.28 1543.99 397.68 1546.31 392.4C1548.63 387.04 1549.79 381.24 1549.79 375C1549.79 368.68 1548.63 362.92 1546.31 357.72C1543.99 352.44 1540.75 347.84 1536.59 343.92C1532.51 340 1527.67 336.96 1522.07 334.8C1516.55 332.64 1510.47 331.56 1503.83 331.56C1497.27 331.56 1491.19 332.64 1485.59 334.8C1479.99 336.96 1475.11 340 1470.95 343.92C1466.79 347.84 1463.55 352.44 1461.23 357.72C1458.99 363 1457.87 368.76 1457.87 375C1457.87 381.24 1458.99 387 1461.23 392.28C1463.55 397.56 1466.75 402.16 1470.83 406.08C1474.99 410 1479.87 413.04 1485.47 415.2ZM1514.15 399.96C1511.03 401.24 1507.59 401.88 1503.83 401.88C1500.07 401.88 1496.59 401.24 1493.39 399.96C1490.19 398.68 1487.39 396.84 1484.99 394.44C1482.67 392.04 1480.83 389.2 1479.47 385.92C1478.19 382.56 1477.55 378.92 1477.55 375C1477.55 371 1478.19 367.36 1479.47 364.08C1480.83 360.8 1482.71 357.96 1485.11 355.56C1487.51 353.16 1490.27 351.32 1493.39 350.04C1496.59 348.76 1500.07 348.12 1503.83 348.12C1507.59 348.12 1511.07 348.76 1514.27 350.04C1517.47 351.32 1520.23 353.16 1522.55 355.56C1524.95 357.96 1526.79 360.8 1528.07 364.08C1529.43 367.36 1530.11 371 1530.11 375C1530.11 379 1529.43 382.64 1528.07 385.92C1526.79 389.2 1524.95 392.04 1522.55 394.44C1520.15 396.84 1517.35 398.68 1514.15 399.96ZM1648.16 418.44C1641.52 418.44 1635.4 417.4 1629.8 415.32C1624.28 413.16 1619.44 410.12 1615.28 406.2C1611.2 402.28 1608 397.68 1605.68 392.4C1603.44 387.12 1602.32 381.32 1602.32 375C1602.32 368.68 1603.44 362.88 1605.68 357.6C1608 352.32 1611.24 347.72 1615.4 343.8C1619.56 339.88 1624.44 336.88 1630.04 334.8C1635.64 332.64 1641.8 331.56 1648.52 331.56C1655.96 331.56 1662.64 332.8 1668.56 335.28C1674.56 337.76 1679.6 341.36 1683.68 346.08L1671.2 357.6C1668.16 354.4 1664.84 352.04 1661.24 350.52C1657.64 348.92 1653.72 348.12 1649.48 348.12C1645.4 348.12 1641.68 348.76 1638.32 350.04C1634.96 351.32 1632.04 353.16 1629.56 355.56C1627.16 357.96 1625.28 360.8 1623.92 364.08C1622.64 367.36 1622 371 1622 375C1622 378.92 1622.64 382.52 1623.92 385.8C1625.28 389.08 1627.16 391.96 1629.56 394.44C1632.04 396.84 1634.92 398.68 1638.2 399.96C1641.56 401.24 1645.24 401.88 1649.24 401.88C1653.08 401.88 1656.8 401.28 1660.4 400.08C1661.73 399.615 1663.05 399.04 1664.36 398.354V373.68H1682.12V407.76C1677.56 411.2 1672.24 413.84 1666.16 415.68C1660.16 417.52 1654.16 418.44 1648.16 418.44ZM1764.26 387.059V417H1783.7V387.259L1816.34 333H1797.26L1774.77 370.289L1752.38 333H1731.74L1764.26 387.059Z" fill="#333333"/>
<path fill-rule="evenodd" clip-rule="evenodd" d="M140 31.1208C108.856 31.2551 86.375 31.4536 86.375 31.4536C73.6437 31.4536 64.55 36.8961 57.275 45.967C50 55.0379 50 67.7371 50 74.9938V439.189C50 459.145 67.46 481.369 93.6499 481.369C114.408 481.369 133.704 475.534 149.219 465.251C149.24 465.13 149.261 465.009 149.283 464.887L190.057 240.741L126.709 229.218L125.991 231.289C125.629 232.332 124.489 232.885 123.446 232.523C122.402 232.161 121.85 231.021 122.212 229.978L122.727 228.493C117.063 227.43 113.098 225.452 110.832 222.557C108.895 219.375 108.453 214.892 109.505 209.11L119.553 153.872C120.605 148.09 122.569 144.203 125.447 142.211C128.684 139.97 133.194 139.376 138.977 140.428L152.533 142.894C152.536 142.684 152.571 142.47 152.644 142.261L155.18 134.951C155.542 133.908 156.682 133.355 157.725 133.717C158.769 134.079 159.321 135.219 158.959 136.263L156.423 143.572L156.413 143.599L380.013 184.273C385.796 185.325 389.655 187.442 391.592 190.624C393.888 193.557 394.51 197.915 393.458 203.697L383.41 258.935C382.358 264.717 380.214 268.729 376.976 270.97C374.099 272.961 369.769 273.431 363.986 272.38L296.88 260.173L274.747 381.844C297.721 382.35 321.373 381.681 335.543 377.961C370.1 368.89 459.218 326.076 459.218 205.614C459.218 85.1531 350.093 36.8961 320.993 33.2678C309.731 31.8635 272.04 31.2744 230.067 31.08V66L185.033 92L140 66V31.1208ZM369.847 105.5L343 90L317.247 104.869L311.967 102.463C310.962 102.005 309.775 102.448 309.317 103.453C308.859 104.458 309.303 105.644 310.308 106.102L316.153 108.766V136.5L343 152L369.847 136.5V105.5ZM100 274L117.32 284V304L100 314L82.6794 304V284L100 274ZM234.787 67.2919C233.781 66.8339 232.595 67.2774 232.137 68.2825C231.679 69.2876 232.123 70.4738 233.128 70.9318L243.419 75.6212C244.424 76.0792 245.61 75.6357 246.068 74.6306C246.526 73.6255 246.082 72.4394 245.077 71.9813L234.787 67.2919ZM260.513 79.0155C259.508 78.5574 258.322 79.0009 257.864 80.0061C257.406 81.0112 257.849 82.1973 258.855 82.6553L269.145 87.3448C270.15 87.8028 271.337 87.3593 271.795 86.3542C272.253 85.349 271.809 84.1629 270.804 83.7049L260.513 79.0155ZM286.24 90.739C285.235 90.281 284.049 90.7245 283.591 91.7296C283.133 92.7347 283.576 93.9209 284.581 94.3789L294.872 99.0683C295.877 99.5264 297.063 99.0828 297.521 98.0777C297.979 97.0726 297.536 95.8865 296.531 95.4284L286.24 90.739ZM172.941 89.8591C173.985 90.2211 174.537 91.3606 174.175 92.4042L171.639 99.7139C171.277 100.757 170.138 101.31 169.094 100.948C168.051 100.586 167.498 99.4463 167.86 98.4028L170.396 91.0931C170.758 90.0495 171.898 89.497 172.941 89.8591ZM165.333 111.788C166.377 112.15 166.929 113.29 166.567 114.333L164.031 121.643C163.669 122.687 162.53 123.239 161.486 122.877C160.443 122.515 159.89 121.376 160.252 120.332L162.788 113.022C163.15 111.979 164.29 111.426 165.333 111.788ZM119.685 243.363C120.728 243.725 121.281 244.865 120.919 245.908L118.383 253.218C118.021 254.262 116.881 254.814 115.838 254.452C114.794 254.09 114.242 252.951 114.604 251.907L117.14 244.597C117.502 243.554 118.641 243.001 119.685 243.363ZM112.077 265.293C113.12 265.655 113.673 266.794 113.311 267.838L110.775 275.147C110.413 276.191 109.273 276.743 108.23 276.381C107.186 276.019 106.634 274.88 106.996 273.836L109.532 266.526C109.894 265.483 111.033 264.93 112.077 265.293Z" fill="url(#paint0_linear_20_3)"/>
<defs>
<linearGradient id="paint0_linear_20_3" x1="338.5" y1="99.5" x2="50.6927" y2="374.604" gradientUnits="userSpaceOnUse">
<stop stop-color="#179E96"/>
<stop offset="1" stop-color="#44D6CD"/>
</linearGradient>
</defs>
</svg>
