<svg width="1896" height="512" viewBox="0 0 1896 512" fill="none" xmlns="http://www.w3.org/2000/svg">
<path fill-rule="evenodd" clip-rule="evenodd" d="M50 439.189C50 459.145 67.46 481.369 93.6499 481.369C126.387 481.369 155.487 466.855 171.856 443.271C174.314 439.73 177.067 435.6 179.941 431.157C166.936 426.415 155.781 420.748 146.475 414.156C140.379 409.889 137.33 405.774 137.33 401.811C137.33 399.068 138.397 396.172 140.531 393.124L167.05 351.516C169.794 347.554 172.537 345.572 175.28 345.572C177.719 345.572 180.615 346.639 183.968 348.773C194.941 355.479 207.439 360.813 221.46 364.776C235.787 368.434 249.656 370.263 263.068 370.263C274.346 370.263 282.424 368.738 287.301 365.69C292.483 362.642 295.074 357.917 295.074 351.516C295.074 344.505 291.721 338.866 285.015 334.599C278.309 330.331 266.726 324.997 250.266 318.596C219.479 306.708 195.246 293.296 177.566 278.36C159.887 263.119 151.047 243.001 151.047 218.006C151.047 186.305 162.021 162.529 183.968 146.678C206.219 130.523 236.091 122.445 273.584 122.445C299.798 122.445 322.05 124.732 340.339 129.304C358.933 133.876 375.089 141.039 388.805 150.794C394.902 155.061 397.95 159.176 397.95 163.139C397.95 165.882 396.883 168.778 394.749 171.826L368.23 213.434C365.487 217.701 362.743 219.835 360 219.835C358.171 219.835 355.275 218.616 351.313 216.177C343.997 211.3 335.31 207.337 325.251 204.289C315.192 200.936 304.371 199.26 292.788 199.26C282.119 199.26 274.041 200.784 268.555 203.832C263.068 206.88 260.325 211.757 260.325 218.463C260.325 223.95 262.153 228.522 265.811 232.18C269.774 235.838 274.651 239.038 280.443 241.782C286.234 244.22 296.293 248.335 310.62 254.127C333.481 263.271 351.465 272.111 364.572 280.646C377.68 288.876 387.586 298.935 394.292 310.823C399.023 318.994 402.085 328.758 403.478 340.115C432.993 313.459 459.218 270.961 459.218 205.614C459.218 85.1531 350.093 36.8961 320.993 33.2677C291.893 29.6394 86.375 31.4535 86.375 31.4535C73.6437 31.4535 64.55 36.8961 57.275 45.9669C50 55.0378 50 67.737 50 74.9937V439.189Z" fill="url(#paint0_linear_14_70)"/>
<path d="M593.76 165C601.6 165 607.573 163.227 611.68 159.68C615.973 155.947 618.12 150.347 618.12 142.88C618.12 135.787 615.88 130.373 611.4 126.64C607.107 122.72 600.76 120.76 592.36 120.76C589.373 120.76 586.853 120.853 584.8 121.04C582.933 121.04 580.973 121.227 578.92 121.6V165H593.76ZM579.2 254.88C577.147 255.44 573.88 256 569.4 256.56C565.107 257.12 560.813 257.4 556.52 257.4C552.227 257.4 548.4 257.027 545.04 256.28C541.867 255.72 539.16 254.6 536.92 252.92C534.68 251.24 533 248.907 531.88 245.92C530.76 242.933 530.2 239.013 530.2 234.16V102.28C530.2 98.3601 531.227 95.3734 533.28 93.3201C535.52 91.0801 538.507 89.3067 542.24 88.0001C548.587 85.7601 555.773 84.1734 563.8 83.2401C572.013 82.1201 580.227 81.5601 588.44 81.5601C614.2 81.5601 633.893 87.0667 647.52 98.0801C661.147 109.093 667.96 124.027 667.96 142.88C667.96 152.027 666.467 160.333 663.48 167.8C660.68 175.08 656.387 181.427 650.6 186.84C645 192.067 637.813 196.173 629.04 199.16C620.453 201.96 610.467 203.36 599.08 203.36H579.2V254.88Z" fill="#333333"/>
<path d="M709.339 91.3601C712.512 89.4934 717.272 87.7201 723.619 86.0401C730.152 84.3601 736.685 83.5201 743.219 83.5201C752.552 83.5201 760.765 84.9201 767.859 87.7201C775.139 90.3334 779.805 94.5334 781.859 100.32C785.219 110.027 788.859 121.32 792.779 134.2C796.699 147.08 800.619 160.427 804.539 174.24C808.459 187.867 812.285 201.4 816.019 214.84C819.752 228.093 823.019 239.853 825.819 250.12C823.579 252.733 820.219 254.787 815.739 256.28C811.259 257.96 805.939 258.8 799.779 258.8C795.299 258.8 791.472 258.427 788.299 257.68C785.312 256.933 782.792 255.813 780.739 254.32C778.872 252.827 777.285 250.867 775.979 248.44C774.859 246.013 773.832 243.213 772.899 240.04L767.859 220.72H717.179C715.685 226.32 714.192 232.107 712.699 238.08C711.205 244.053 709.712 249.84 708.219 255.44C705.605 256.373 702.805 257.12 699.819 257.68C697.019 258.427 693.565 258.8 689.459 258.8C679.939 258.8 672.845 257.213 668.179 254.04C663.699 250.68 661.459 246.107 661.459 240.32C661.459 237.707 661.832 235.093 662.579 232.48C663.325 229.867 664.165 226.787 665.099 223.24C666.405 218.2 668.179 211.947 670.419 204.48C672.845 197.013 675.459 188.987 678.259 180.4C681.059 171.627 684.045 162.667 687.219 153.52C690.392 144.373 693.379 135.787 696.179 127.76C698.979 119.547 701.499 112.267 703.739 105.92C706.165 99.5734 708.032 94.7201 709.339 91.3601ZM742.939 127.48C740.325 135.32 737.339 144.093 733.979 153.8C730.805 163.32 727.912 173.027 725.299 182.92H760.019C757.405 172.84 754.699 163.04 751.899 153.52C749.285 143.813 746.859 135.133 744.619 127.48H742.939Z" fill="#333333"/>
<path d="M886.819 188.52C878.606 185.72 871.139 182.92 864.419 180.12C857.699 177.133 851.913 173.587 847.059 169.48C842.206 165.373 838.379 160.52 835.579 154.92C832.966 149.133 831.659 142.133 831.659 133.92C831.659 118.053 837.726 105.36 849.859 95.8401C862.179 86.3201 879.353 81.5601 901.379 81.5601C909.406 81.5601 916.873 82.1201 923.779 83.2401C930.686 84.3601 936.566 86.1334 941.419 88.5601C946.459 90.8001 950.379 93.7867 953.179 97.5201C955.979 101.067 957.379 105.267 957.379 110.12C957.379 114.973 956.259 119.173 954.019 122.72C951.779 126.08 949.073 128.973 945.899 131.4C941.793 128.787 936.286 126.547 929.379 124.68C922.473 122.627 914.913 121.6 906.699 121.6C898.299 121.6 892.139 122.813 888.219 125.24C884.299 127.48 882.339 130.373 882.339 133.92C882.339 136.72 883.553 139.053 885.979 140.92C888.406 142.6 892.046 144.187 896.899 145.68L911.739 150.44C929.286 156.04 942.726 163.227 952.059 172C961.579 180.587 966.339 192.347 966.339 207.28C966.339 223.147 960.086 236.027 947.579 245.92C935.073 255.627 916.686 260.48 892.419 260.48C883.833 260.48 875.806 259.733 868.339 258.24C861.059 256.933 854.619 254.973 849.019 252.36C843.606 249.56 839.313 246.2 836.139 242.28C833.153 238.173 831.659 233.507 831.659 228.28C831.659 222.867 833.246 218.293 836.419 214.56C839.593 210.64 843.046 207.653 846.779 205.6C852.006 209.707 858.353 213.253 865.819 216.24C873.473 219.227 881.779 220.72 890.739 220.72C899.886 220.72 906.326 219.32 910.059 216.52C913.793 213.72 915.659 210.453 915.659 206.72C915.659 202.987 914.166 200.187 911.179 198.32C908.193 196.267 903.993 194.307 898.579 192.44L886.819 188.52Z" fill="#333333"/>
<path d="M1029.84 188.52C1021.62 185.72 1014.16 182.92 1007.44 180.12C1000.72 177.133 994.931 173.587 990.078 169.48C985.225 165.373 981.398 160.52 978.598 154.92C975.985 149.133 974.678 142.133 974.678 133.92C974.678 118.053 980.745 105.36 992.878 95.8401C1005.2 86.3201 1022.37 81.5601 1044.4 81.5601C1052.42 81.5601 1059.89 82.1201 1066.8 83.2401C1073.7 84.3601 1079.58 86.1334 1084.44 88.5601C1089.48 90.8001 1093.4 93.7867 1096.2 97.5201C1099 101.067 1100.4 105.267 1100.4 110.12C1100.4 114.973 1099.28 119.173 1097.04 122.72C1094.8 126.08 1092.09 128.973 1088.92 131.4C1084.81 128.787 1079.3 126.547 1072.4 124.68C1065.49 122.627 1057.93 121.6 1049.72 121.6C1041.32 121.6 1035.16 122.813 1031.24 125.24C1027.32 127.48 1025.36 130.373 1025.36 133.92C1025.36 136.72 1026.57 139.053 1029 140.92C1031.42 142.6 1035.06 144.187 1039.92 145.68L1054.76 150.44C1072.3 156.04 1085.74 163.227 1095.08 172C1104.6 180.587 1109.36 192.347 1109.36 207.28C1109.36 223.147 1103.1 236.027 1090.6 245.92C1078.09 255.627 1059.7 260.48 1035.44 260.48C1026.85 260.48 1018.82 259.733 1011.36 258.24C1004.08 256.933 997.638 254.973 992.038 252.36C986.625 249.56 982.331 246.2 979.158 242.28C976.171 238.173 974.678 233.507 974.678 228.28C974.678 222.867 976.265 218.293 979.438 214.56C982.611 210.64 986.065 207.653 989.798 205.6C995.025 209.707 1001.37 213.253 1008.84 216.24C1016.49 219.227 1024.8 220.72 1033.76 220.72C1042.9 220.72 1049.34 219.32 1053.08 216.52C1056.81 213.72 1058.68 210.453 1058.68 206.72C1058.68 202.987 1057.18 200.187 1054.2 198.32C1051.21 196.267 1047.01 194.307 1041.6 192.44L1029.84 188.52Z" fill="#333333"/>
<path d="M1279.51 228.28C1279.51 234.067 1278.48 238.36 1276.43 241.16C1274.38 243.96 1271.11 246.667 1266.63 249.28C1264.02 250.773 1260.75 252.267 1256.83 253.76C1252.91 255.067 1248.62 256.187 1243.95 257.12C1239.28 258.24 1234.34 259.08 1229.11 259.64C1224.07 260.2 1219.03 260.48 1213.99 260.48C1200.55 260.48 1187.95 258.707 1176.19 255.16C1164.43 251.427 1154.16 245.92 1145.39 238.64C1136.8 231.173 1129.99 221.933 1124.95 210.92C1119.91 199.907 1117.39 187.12 1117.39 172.56C1117.39 157.253 1120.1 143.907 1125.51 132.52C1131.11 121.133 1138.39 111.707 1147.35 104.24C1156.5 96.5867 1166.86 90.8934 1178.43 87.1601C1190.19 83.4267 1202.23 81.5601 1214.55 81.5601C1232.28 81.5601 1246.28 84.4534 1256.55 90.2401C1267 95.8401 1272.23 103.213 1272.23 112.36C1272.23 117.213 1271.02 121.413 1268.59 124.96C1266.16 128.507 1263.36 131.307 1260.19 133.36C1255.52 130.56 1249.64 127.853 1242.55 125.24C1235.64 122.44 1227.8 121.04 1219.03 121.04C1203.35 121.04 1190.84 125.52 1181.51 134.48C1172.36 143.44 1167.79 155.853 1167.79 171.72C1167.79 180.307 1169 187.773 1171.43 194.12C1174.04 200.28 1177.5 205.413 1181.79 209.52C1186.08 213.44 1191.03 216.427 1196.63 218.48C1202.23 220.347 1208.2 221.28 1214.55 221.28C1218.66 221.28 1222.3 220.907 1225.47 220.16C1228.64 219.413 1231.07 218.573 1232.75 217.64V191.32H1202.79C1201.67 189.267 1200.55 186.56 1199.43 183.2C1198.5 179.84 1198.03 176.293 1198.03 172.56C1198.03 165.84 1199.52 160.987 1202.51 158C1205.68 155.013 1209.7 153.52 1214.55 153.52H1261.87C1267.47 153.52 1271.76 155.107 1274.75 158.28C1277.92 161.267 1279.51 165.56 1279.51 171.16V228.28Z" fill="#333333"/>
<path d="M1300.53 112.36C1300.53 104.333 1302.86 97.9867 1307.53 93.3201C1312.19 88.6534 1318.54 86.3201 1326.57 86.3201H1418.97C1420.27 88.3734 1421.39 91.0801 1422.33 94.4401C1423.45 97.8001 1424.01 101.347 1424.01 105.08C1424.01 112.173 1422.42 117.213 1419.25 120.2C1416.26 123.187 1412.25 124.68 1407.21 124.68H1348.13V150.72H1411.13C1412.43 152.773 1413.55 155.48 1414.49 158.84C1415.61 162.013 1416.17 165.467 1416.17 169.2C1416.17 176.293 1414.67 181.333 1411.69 184.32C1408.7 187.307 1404.69 188.8 1399.65 188.8H1348.13V218.2H1420.09C1421.39 220.253 1422.51 222.96 1423.45 226.32C1424.57 229.68 1425.13 233.227 1425.13 236.96C1425.13 244.053 1423.54 249.187 1420.37 252.36C1417.38 255.347 1413.37 256.84 1408.33 256.84H1326.57C1318.54 256.84 1312.19 254.507 1307.53 249.84C1302.86 245.173 1300.53 238.827 1300.53 230.8V112.36Z" fill="#333333"/>
<path d="M1596.45 250.12C1593.83 252.733 1590.01 254.693 1584.97 256C1580.11 257.493 1574.23 258.24 1567.33 258.24C1560.42 258.24 1553.89 257.213 1547.73 255.16C1541.57 253.107 1536.53 248.16 1532.61 240.32L1504.89 183.76C1502.09 177.973 1499.57 172.56 1497.33 167.52C1495.09 162.293 1492.66 156.32 1490.05 149.6L1488.37 149.88C1489.11 159.96 1489.49 170.227 1489.49 180.68C1489.67 191.133 1489.77 201.4 1489.77 211.48V254.88C1487.71 255.44 1484.54 256 1480.25 256.56C1476.14 257.12 1472.03 257.4 1467.93 257.4C1463.82 257.4 1460.18 257.12 1457.01 256.56C1453.83 256 1451.22 254.88 1449.17 253.2C1447.11 251.52 1445.53 249.28 1444.41 246.48C1443.29 243.493 1442.73 239.667 1442.73 235V95.0001C1445.34 91.2667 1449.35 88.4667 1454.77 86.6001C1460.18 84.7334 1465.97 83.8001 1472.13 83.8001C1479.03 83.8001 1485.57 84.9201 1491.73 87.1601C1498.07 89.2134 1503.11 94.0667 1506.85 101.72L1534.85 158.28C1537.65 164.067 1540.17 169.573 1542.41 174.8C1544.65 179.84 1547.07 185.72 1549.69 192.44L1551.09 192.16C1550.34 182.08 1549.87 172 1549.69 161.92C1549.5 151.84 1549.41 141.76 1549.41 131.68V86.3201C1551.46 85.7601 1554.54 85.2001 1558.65 84.6401C1562.94 84.0801 1567.14 83.8001 1571.25 83.8001C1579.46 83.8001 1585.71 85.2934 1590.01 88.2801C1594.3 91.0801 1596.45 97.0534 1596.45 106.2V250.12Z" fill="#333333"/>
<path d="M1670.57 254.88C1668.51 255.44 1665.25 256 1660.77 256.56C1656.47 257.12 1652.18 257.4 1647.89 257.4C1643.59 257.4 1639.77 257.027 1636.41 256.28C1633.23 255.72 1630.53 254.6 1628.29 252.92C1626.05 251.24 1624.37 248.907 1623.25 245.92C1622.13 242.933 1621.57 239.013 1621.57 234.16V86.3201C1623.62 85.9467 1626.89 85.4801 1631.37 84.9201C1635.85 84.1734 1640.14 83.8001 1644.25 83.8001C1648.54 83.8001 1652.27 84.1734 1655.45 84.9201C1658.81 85.4801 1661.61 86.6001 1663.85 88.2801C1666.09 89.9601 1667.77 92.2934 1668.89 95.2801C1670.01 98.2667 1670.57 102.187 1670.57 107.04V254.88Z" fill="#333333"/>
<path d="M1683.92 107.04C1684.85 104.427 1686.16 101.813 1687.84 99.2001C1689.52 96.5867 1691.57 94.2534 1694 92.2001C1696.61 89.9601 1699.6 88.1867 1702.96 86.8801C1706.32 85.3867 1710.05 84.6401 1714.16 84.6401C1719.57 84.6401 1724.33 86.0401 1728.44 88.8401C1732.54 91.4534 1736.74 96.0267 1741.04 102.56L1762.88 135.88L1795.08 88.2801C1796.57 87.5334 1798.62 86.8801 1801.24 86.3201C1804.04 85.5734 1806.74 85.2001 1809.36 85.2001C1817.94 85.2001 1824.66 87.2534 1829.52 91.3601C1834.37 95.4667 1836.8 100.507 1836.8 106.48C1836.8 111.707 1835.4 116.373 1832.6 120.48C1829.98 124.587 1826.34 129.533 1821.68 135.32L1792.84 170.6L1838.48 235.84C1836.98 242.747 1833.72 248.253 1828.68 252.36C1823.82 256.28 1817.2 258.24 1808.8 258.24C1803.38 258.24 1798.72 256.933 1794.8 254.32C1790.88 251.52 1786.86 246.853 1782.76 240.32L1760.08 204.48L1724.8 257.68C1723.3 257.867 1721.9 257.96 1720.6 257.96C1719.29 258.147 1717.98 258.24 1716.68 258.24C1706.04 258.24 1698.2 256.093 1693.16 251.8C1688.12 247.507 1685.6 242.187 1685.6 235.84C1685.6 230.427 1686.72 225.76 1688.96 221.84C1691.38 217.733 1694.74 212.973 1699.04 207.56L1728.44 169.76L1683.92 107.04Z" fill="#333333"/>
<path fill-rule="evenodd" clip-rule="evenodd" d="M488.066 389.5C516.078 354.5 520 312 520 312H1846V434H520H427C427 434 460.054 424.5 488.066 389.5ZM596.591 354.682C596.227 351.015 594.667 348.167 591.909 346.136C589.151 344.106 585.409 343.091 580.682 343.091C577.47 343.091 574.757 343.545 572.545 344.454C570.333 345.333 568.636 346.56 567.454 348.136C566.303 349.712 565.727 351.5 565.727 353.5C565.667 355.167 566.015 356.621 566.773 357.864C567.561 359.106 568.636 360.182 570 361.091C571.364 361.97 572.939 362.742 574.727 363.409C576.515 364.045 578.424 364.591 580.454 365.045L588.818 367.045C592.879 367.954 596.606 369.167 600 370.682C603.394 372.197 606.333 374.06 608.818 376.273C611.303 378.485 613.227 381.091 614.591 384.091C615.985 387.091 616.697 390.53 616.727 394.409C616.697 400.106 615.242 405.045 612.364 409.227C609.515 413.379 605.394 416.606 600 418.909C594.636 421.182 588.167 422.318 580.591 422.318C573.076 422.318 566.53 421.167 560.954 418.864C555.409 416.56 551.076 413.151 547.954 408.636C544.864 404.091 543.242 398.47 543.091 391.773H562.136C562.348 394.894 563.242 397.5 564.818 399.591C566.424 401.651 568.561 403.212 571.227 404.273C573.924 405.303 576.97 405.818 580.364 405.818C583.697 405.818 586.591 405.333 589.045 404.364C591.53 403.394 593.454 402.045 594.818 400.318C596.182 398.591 596.864 396.606 596.864 394.364C596.864 392.273 596.242 390.515 595 389.091C593.788 387.667 592 386.454 589.636 385.454C587.303 384.454 584.439 383.545 581.045 382.727L570.909 380.182C563.061 378.273 556.864 375.288 552.318 371.227C547.773 367.167 545.515 361.697 545.545 354.818C545.515 349.182 547.015 344.257 550.045 340.045C553.106 335.833 557.303 332.545 562.636 330.182C567.97 327.818 574.03 326.636 580.818 326.636C587.727 326.636 593.757 327.818 598.909 330.182C604.091 332.545 608.121 335.833 611 340.045C613.879 344.257 615.364 349.136 615.454 354.682H596.591ZM782.071 374.454C782.071 384.606 780.147 393.242 776.299 400.364C772.48 407.485 767.268 412.924 760.662 416.682C754.086 420.409 746.692 422.273 738.48 422.273C730.208 422.273 722.783 420.394 716.208 416.636C709.632 412.879 704.435 407.439 700.617 400.318C696.799 393.197 694.889 384.576 694.889 374.454C694.889 364.303 696.799 355.667 700.617 348.545C704.435 341.424 709.632 336 716.208 332.273C722.783 328.515 730.208 326.636 738.48 326.636C746.692 326.636 754.086 328.515 760.662 332.273C767.268 336 772.48 341.424 776.299 348.545C780.147 355.667 782.071 364.303 782.071 374.454ZM762.117 374.454C762.117 367.879 761.132 362.333 759.162 357.818C757.223 353.303 754.48 349.879 750.935 347.545C747.389 345.212 743.238 344.045 738.48 344.045C733.723 344.045 729.571 345.212 726.026 347.545C722.48 349.879 719.723 353.303 717.753 357.818C715.814 362.333 714.844 367.879 714.844 374.454C714.844 381.03 715.814 386.576 717.753 391.091C719.723 395.606 722.48 399.03 726.026 401.364C729.571 403.697 733.723 404.864 738.48 404.864C743.238 404.864 747.389 403.697 750.935 401.364C754.48 399.03 757.223 395.606 759.162 391.091C761.132 386.576 762.117 381.03 762.117 374.454ZM882.893 327.909H863.211V421H922.802V404.773H882.893V327.909ZM1059.9 327.909H1079.58V388.364C1079.58 395.151 1077.96 401.091 1074.71 406.182C1071.5 411.273 1067 415.242 1061.21 418.091C1055.43 420.909 1048.68 422.318 1040.99 422.318C1033.26 422.318 1026.5 420.909 1020.71 418.091C1014.93 415.242 1010.43 411.273 1007.21 406.182C1004 401.091 1002.4 395.151 1002.4 388.364V327.909H1022.08V386.682C1022.08 390.227 1022.85 393.379 1024.4 396.136C1025.97 398.894 1028.18 401.06 1031.03 402.636C1033.88 404.212 1037.2 405 1040.99 405C1044.8 405 1048.12 404.212 1050.94 402.636C1053.79 401.06 1055.99 398.894 1057.53 396.136C1059.11 393.379 1059.9 390.227 1059.9 386.682V327.909ZM1158.79 327.909V344.136H1187.29V421H1206.74V344.136H1235.24V327.909H1158.79ZM1334.07 421H1314.39V327.909H1334.07V421ZM1496.6 400.364C1500.45 393.242 1502.37 384.606 1502.37 374.454C1502.37 364.303 1500.45 355.667 1496.6 348.545C1492.78 341.424 1487.57 336 1480.96 332.273C1474.39 328.515 1466.99 326.636 1458.78 326.636C1450.51 326.636 1443.08 328.515 1436.51 332.273C1429.93 336 1424.73 341.424 1420.92 348.545C1417.1 355.667 1415.19 364.303 1415.19 374.454C1415.19 384.576 1417.1 393.197 1420.92 400.318C1424.73 407.439 1429.93 412.879 1436.51 416.636C1443.08 420.394 1450.51 422.273 1458.78 422.273C1466.99 422.273 1474.39 420.409 1480.96 416.682C1487.57 412.924 1492.78 407.485 1496.6 400.364ZM1479.46 357.818C1481.43 362.333 1482.42 367.879 1482.42 374.454C1482.42 381.03 1481.43 386.576 1479.46 391.091C1477.52 395.606 1474.78 399.03 1471.23 401.364C1467.69 403.697 1463.54 404.864 1458.78 404.864C1454.02 404.864 1449.87 403.697 1446.33 401.364C1442.78 399.03 1440.02 395.606 1438.05 391.091C1436.11 386.576 1435.14 381.03 1435.14 374.454C1435.14 367.879 1436.11 362.333 1438.05 357.818C1440.02 353.303 1442.78 349.879 1446.33 347.545C1449.87 345.212 1454.02 344.045 1458.78 344.045C1463.54 344.045 1467.69 345.212 1471.23 347.545C1474.78 349.879 1477.52 353.303 1479.46 357.818ZM1661.37 421H1644.37L1603.87 362.409H1603.19V421H1583.51V327.909H1600.78L1640.97 386.454H1641.78V327.909H1661.37V421ZM1790.01 346.136C1792.77 348.167 1794.33 351.015 1794.7 354.682H1813.56C1813.47 349.136 1811.98 344.257 1809.1 340.045C1806.23 335.833 1802.2 332.545 1797.01 330.182C1791.86 327.818 1785.83 326.636 1778.92 326.636C1772.14 326.636 1766.07 327.818 1760.74 330.182C1755.41 332.545 1751.21 335.833 1748.15 340.045C1745.12 344.257 1743.62 349.182 1743.65 354.818C1743.62 361.697 1745.88 367.167 1750.42 371.227C1754.97 375.288 1761.17 378.273 1769.01 380.182L1779.15 382.727C1782.54 383.545 1785.41 384.454 1787.74 385.454C1790.1 386.454 1791.89 387.667 1793.1 389.091C1794.35 390.515 1794.97 392.273 1794.97 394.364C1794.97 396.606 1794.29 398.591 1792.92 400.318C1791.56 402.045 1789.64 403.394 1787.15 404.364C1784.7 405.333 1781.8 405.818 1778.47 405.818C1775.07 405.818 1772.03 405.303 1769.33 404.273C1766.67 403.212 1764.53 401.651 1762.92 399.591C1761.35 397.5 1760.45 394.894 1760.24 391.773H1741.2C1741.35 398.47 1742.97 404.091 1746.06 408.636C1749.18 413.151 1753.51 416.56 1759.06 418.864C1764.64 421.167 1771.18 422.318 1778.7 422.318C1786.27 422.318 1792.74 421.182 1798.1 418.909C1803.5 416.606 1807.62 413.379 1810.47 409.227C1813.35 405.045 1814.8 400.106 1814.83 394.409C1814.8 390.53 1814.09 387.091 1812.7 384.091C1811.33 381.091 1809.41 378.485 1806.92 376.273C1804.44 374.06 1801.5 372.197 1798.1 370.682C1794.71 369.167 1790.98 367.954 1786.92 367.045L1778.56 365.045C1776.53 364.591 1774.62 364.045 1772.83 363.409C1771.04 362.742 1769.47 361.97 1768.1 361.091C1766.74 360.182 1765.67 359.106 1764.88 357.864C1764.12 356.621 1763.77 355.167 1763.83 353.5C1763.83 351.5 1764.41 349.712 1765.56 348.136C1766.74 346.56 1768.44 345.333 1770.65 344.454C1772.86 343.545 1775.57 343.091 1778.79 343.091C1783.51 343.091 1787.26 344.106 1790.01 346.136Z" fill="#333333"/>
<defs>
<linearGradient id="paint0_linear_14_70" x1="331.906" y1="90.8678" x2="50.7144" y2="374.587" gradientUnits="userSpaceOnUse">
<stop stop-color="#119C94"/>
<stop offset="1" stop-color="#44D6CD"/>
</linearGradient>
</defs>
</svg>
